<svg width="35" height="35" viewBox="0 0 35 35" fill="none" xmlns="http://www.w3.org/2000/svg">
<g id="flame 1">
<path id="Vector" d="M9.60903 31.8371C8.00255 30.0116 6.39614 28.1131 5.3738 25.8494C4.35153 23.4397 4.05942 20.6649 4.57059 18.0362C5.08176 15.4074 6.25005 12.9247 7.92958 10.8071C7.78356 12.6327 8.44075 14.5312 9.68208 15.9186C8.95185 12.4136 10.1202 8.61649 12.4569 5.84172C14.7935 3.06695 18.0065 1.24133 21.3654 0C19.6859 1.7525 19.4669 4.52727 20.124 6.86399C20.7812 9.20064 22.1687 11.2452 23.41 13.3628C24.6513 15.4804 25.8197 17.671 25.8927 20.0807C26.5499 18.8394 27.2801 17.598 27.7183 16.2106C28.1564 14.8232 28.3755 13.3628 28.0104 11.9754C29.3248 13.5819 30.055 15.1883 30.4201 17.2329C30.7851 19.2775 30.7122 21.3951 30.4931 23.4397C30.201 25.7034 29.6169 28.04 28.3755 29.9386C26.9151 32.2022 24.5784 33.8086 22.0227 34.6849C17.4953 35.4882 13.041 34.831 9.60903 31.8371Z" fill="#F3705A"/>
<path id="Vector_2" d="M15.1584 34.5386C21.1461 36.8753 27.0608 29.7923 23.7749 24.3157C23.7749 24.2427 23.7018 24.2427 23.7018 24.1697C23.9939 27.1635 23.2637 29.3542 21.8763 30.5956C22.6065 28.8431 22.0953 26.7985 21.2191 25.046C20.3428 23.3665 19.1015 21.8331 18.1522 20.2266C17.2029 18.5471 16.4727 16.6485 16.9109 14.75C15.1584 16.0644 13.917 18.0359 13.4059 20.1535C12.8947 22.2711 13.1868 24.6078 14.1361 26.5794C13.0408 25.7762 12.2376 24.4618 12.1645 23.0744C10.9962 24.4618 10.266 26.2873 10.339 28.1128C10.3391 30.9606 12.6027 33.5164 15.1584 34.5386Z" fill="#FFD15C"/>
</g>
</svg>
