<?xml version="1.0" encoding="UTF-8" standalone="no"?>
<!-- Created with Inkscape (http://www.inkscape.org/) -->

<svg width="300mm" height="300mm" viewBox="0 0 300 300" version="1.1" id="svg1593" xml:space="preserve" inkscape:version="1.2.2 (732a01da63, 2022-12-09)" sodipodi:docname="OOCblankdude.svg"
  xmlns:inkscape="http://www.inkscape.org/namespaces/inkscape"
  xmlns:sodipodi="http://sodipodi.sourceforge.net/DTD/sodipodi-0.dtd"
  xmlns="http://www.w3.org/2000/svg"
  xmlns:svg="http://www.w3.org/2000/svg">
  <sodipodi:namedview id="namedview1595" pagecolor="#ffffff" bordercolor="#000000" borderopacity="0.25" inkscape:showpageshadow="2" inkscape:pageopacity="0.0" inkscape:pagecheckerboard="0" inkscape:deskcolor="#d1d1d1" inkscape:document-units="mm" showgrid="false" inkscape:lockguides="false" inkscape:zoom="0.72887884" inkscape:cx="582.40133" inkscape:cy="633.85021" inkscape:window-width="3840" inkscape:window-height="2066" inkscape:window-x="-11" inkscape:window-y="-11" inkscape:window-maximized="1" inkscape:current-layer="svg1593" />
  <defs id="defs1590" />
  <path id="path392" style="display:inline;stroke-width:0.240006" d="M 124.43903 120.04099 A 59.896332 66.748878 0 0 0 115.51222 119.29536 A 59.896332 66.748878 0 0 0 55.615708 186.04434 A 59.896332 66.748878 0 0 0 67.663467 226.12165 C 42.392396 225.96356 -1.0274351 231.34222 -4.5781231 242.29922 C -9.6601594 257.98178 20.555673 267.9071 27.850194 274.9011 C 23.501186 285.52495 18.284748 294.86463 14.593501 309.65254 C 21.088468 310.97826 136.55876 334.48977 159.21533 339.31223 C 159.63691 335.21052 158.89427 318.97732 157.04027 302.28172 C 193.92455 283.77879 207.97241 265.61185 209.55923 254.28189 C 211.90361 237.54292 185.76981 248.2522 166.56067 244.39135 C 160.46811 243.16681 155.15316 241.76032 150.47442 240.24137 A 59.896332 66.748878 0 0 0 175.40842 186.0446 A 59.896332 66.748878 0 0 0 124.43903 120.04099 z " transform="rotate(-11.536424,1.0583327,-10.476909)" inkscape:label="ooc" />
</svg>
