<?xml version="1.0" encoding="UTF-8" standalone="no"?>
<!-- Created with Inkscape (http://www.inkscape.org/) -->

<svg width="300mm" height="300mm" viewBox="0 0 300 300" version="1.1" id="svg1593" xml:space="preserve" inkscape:version="1.2.2 (732a01da63, 2022-12-09)" sodipodi:docname="Wizardicon.svg"
  xmlns:inkscape="http://www.inkscape.org/namespaces/inkscape"
  xmlns:sodipodi="http://sodipodi.sourceforge.net/DTD/sodipodi-0.dtd"
  xmlns="http://www.w3.org/2000/svg"
  xmlns:svg="http://www.w3.org/2000/svg">
  <!-- <sodipodi:namedview id="namedview1595" pagecolor="#ffffff" bordercolor="#000000" borderopacity="0.25" inkscape:showpageshadow="2" inkscape:pageopacity="0.0" inkscape:pagecheckerboard="0" inkscape:deskcolor="#d1d1d1" inkscape:document-units="mm" showgrid="false" inkscape:lockguides="false" inkscape:zoom="0.72887884" inkscape:cx="582.40133" inkscape:cy="633.85021" inkscape:window-width="3840" inkscape:window-height="2066" inkscape:window-x="-11" inkscape:window-y="-11" inkscape:window-maximized="1" inkscape:current-layer="svg1593" /> -->
  <defs id="defs1590" />
  <path id="path1699" style="display:inline;stroke-width:0.264583" inkscape:transform-center-x="-2.189459" inkscape:transform-center-y="0.89465143" d="M 59.519357 -80.401265 C 57.280412 -80.415377 55.215692 -80.145355 53.367507 -79.546469 C 39.831095 -75.160136 7.6030974 -36.070446 4.3866809 -11.466969 C 3.7019317 -6.2290785 28.682706 -20.148401 39.112133 -22.158804 C 41.570669 -14.117193 47.959001 15.075032 49.34778 24.693144 C 49.712361 27.218091 28.138912 49.013856 32.093322 70.552426 C 35.330192 88.182742 68.619226 83.937083 89.755106 76.551808 C 87.700213 70.765121 83.208127 48.871506 83.55784 44.463733 C 87.523793 37.173147 133.05013 7.8025027 146.00615 4.1581867 C 154.91437 9.720703 165.81242 24.55803 170.36579 36.380889 C 195.37772 21.899961 223.64414 -8.9263598 201.92793 -27.78472 C 187.83898 -40.019573 165.27645 -38.510473 142.00832 -34.49535 C 136.61678 -40.497719 85.938914 -80.234737 59.519357 -80.401265 z M 225.04147 38.654125 L 212.38093 49.481397 L 196.28377 45.189984 L 202.66878 60.576706 L 193.61314 74.559584 L 210.22002 73.242112 L 220.72045 86.175555 L 224.59907 69.974183 L 240.14393 63.984533 L 225.93438 55.289383 L 225.04147 38.654125 z M 154.35784 40.988998 C 149.53562 42.243098 144.15995 45.751295 138.97193 48.976955 C 127.73361 45.925684 121.24986 45.853218 115.70106 48.010647 C 112.20093 49.371536 108.53199 53.204704 105.8697 55.630003 C 99.073172 57.426686 89.173626 53.199809 89.740103 55.662443 C 91.246944 62.213223 95.383491 71.718343 106.11949 77.224534 C 106.98723 84.412788 107.57176 91.265744 112.35933 101.67379 C 118.97521 116.05651 137.23446 128.16264 146.77863 127.82817 C 153.17096 127.60415 169.7142 114.46468 174.61422 95.541403 C 177.38763 84.830852 175.55387 77.356515 174.06558 68.968946 C 179.53517 62.032193 184.62471 51.602796 182.44687 43.025827 C 182.08198 41.588768 177.9838 46.025091 171.49998 46.993651 C 165.47479 45.365159 160.86599 40.862992 154.35784 40.988998 z M 205.1399 78.484424 C 202.15596 78.488684 198.5678 81.808356 196.45895 86.821923 L 174.10572 139.964 C 171.60635 145.906 172.1596 151.91033 175.34615 153.42662 L 177.4584 154.43145 C 180.64495 155.94773 185.22225 152.38468 187.72162 146.44268 L 210.07485 93.301012 C 212.57423 87.359007 212.02097 81.354677 208.83442 79.838391 L 206.72217 78.83356 C 206.22427 78.59664 205.69249 78.483635 205.1399 78.484424 z " transform="matrix(1.274386,0,0,1.274386,-5.4823209,102.81778)" />
</svg>
